<?xml version="1.0" encoding="UTF-8" standalone="no" ?>
<!DOCTYPE svg PUBLIC "-//W3C//DTD SVG 1.1//EN" "http://www.w3.org/Graphics/SVG/1.1/DTD/svg11.dtd">
<svg xmlns="http://www.w3.org/2000/svg" xmlns:xlink="http://www.w3.org/1999/xlink" version="1.1" width="73" height="45" viewBox="0 0 73 45" xml:space="preserve">
<desc>Created with Fabric.js 3.6.3</desc>
<defs>
</defs>
<g transform="matrix(1 0 0 1 37 23)"  >
<g style=""   >
		<g transform="matrix(1 0 0 1 0.1 0)"  >
<path style="stroke: none; stroke-width: 1; stroke-dasharray: none; stroke-linecap: butt; stroke-dashoffset: 0; stroke-linejoin: miter; stroke-miterlimit: 4; fill: rgb(26,31,113); fill-rule: nonzero; opacity: 1;"  transform=" translate(-108.1, -108)" d="M 144.4 128.2 c 0 1.5 -1.2 2.7 -2.7 2.7 H 74.5 c -1.5 0 -2.7 -1.2 -2.7 -2.7 V 87.8 c 0 -1.5 1.2 -2.7 2.7 -2.7 h 67.2 c 1.5 0 2.7 1.2 2.7 2.7 V 128.2 z" stroke-linecap="round" />
</g>
		<g transform="matrix(1 0 0 1 -1.2 0.05)"  >
<path style="stroke: none; stroke-width: 1; stroke-dasharray: none; stroke-linecap: butt; stroke-dashoffset: 0; stroke-linejoin: miter; stroke-miterlimit: 4; fill: rgb(255,255,255); fill-rule: nonzero; opacity: 1;"  transform=" translate(-106.8, -108.05)" d="M 99.4 98.4 l -8.1 19.3 H 86 l -4 -15.4 c -0.2 -0.9 -0.5 -1.3 -1.2 -1.7 c -1.2 -0.6 -3.2 -1.3 -4.9 -1.6 l 0.1 -0.6 h 8.5 c 1.1 0 2.1 0.7 2.3 2 l 2.1 11.2 l 5.2 -13.1 H 99.4 z M 120.1 111.4 c 0 -5.1 -7 -5.4 -7 -7.6 c 0 -0.7 0.7 -1.4 2.1 -1.6 c 0.7 -0.1 2.7 -0.2 4.9 0.9 l 0.9 -4.1 c -1.2 -0.4 -2.7 -0.9 -4.7 -0.9 c -4.9 0 -8.4 2.6 -8.4 6.4 c 0 2.8 2.5 4.3 4.4 5.2 c 1.9 0.9 2.6 1.5 2.6 2.4 c 0 1.3 -1.5 1.9 -3 1.9 c -2.5 0 -4 -0.7 -5.1 -1.2 l -0.9 4.2 c 1.2 0.5 3.3 1 5.5 1 C 116.6 118 120 115.4 120.1 111.4 M 133.1 117.7 h 4.6 l -4 -19.3 h -4.3 c -1 0 -1.8 0.6 -2.1 1.4 l -7.5 17.9 h 5.2 l 1 -2.9 h 6.4 L 133.1 117.7 z M 127.5 110.9 l 2.6 -7.2 l 1.5 7.2 H 127.5 z M 106.5 98.4 l -4.1 19.3 h -5 l 4.1 -19.3 H 106.5 z" stroke-linecap="round" />
</g>
</g>
</g>
</svg>